<?xml version="1.0" standalone="no"?>
<!DOCTYPE svg PUBLIC "-//W3C//DTD SVG 20010904//EN"
 "http://www.w3.org/TR/2001/REC-SVG-20010904/DTD/svg10.dtd">
<svg version="1.0" xmlns="http://www.w3.org/2000/svg"
 width="216.000000pt" height="216.000000pt" viewBox="0 0 216.000000 216.000000"
 preserveAspectRatio="xMidYMid meet">
<metadata>
Created by potrace 1.14, written by Peter Selinger 2001-2017
</metadata>
<g transform="translate(0.000000,216.000000) scale(0.100000,-0.100000)"
fill="#000000" stroke="none">
<path d="M1027 2154 c-1 -1 -29 -4 -62 -7 -33 -3 -67 -8 -75 -11 -8 -3 -31 -7
-51 -10 -50 -7 -170 -52 -249 -91 -245 -124 -442 -355 -529 -620 -16 -50 -32
-108 -36 -130 -3 -22 -8 -56 -12 -75 -7 -45 -7 -226 1 -265 3 -16 9 -46 12
-65 44 -265 221 -533 457 -691 48 -32 94 -59 102 -59 7 0 15 -4 17 -8 6 -17
208 -87 278 -98 273 -41 489 -6 709 112 192 104 352 268 451 464 32 62 93 230
85 230 -3 0 0 11 5 24 12 32 24 153 23 236 -1 221 -72 434 -208 625 -84 117
-229 245 -345 303 -19 9 -37 20 -40 23 -3 3 -42 20 -88 38 -88 33 -176 56
-257 67 -48 6 -184 12 -188 8z"/>
</g>
</svg>
